<?xml version="1.0" encoding="UTF-8" standalone="no"?>
<!-- Created with Inkscape (http://www.inkscape.org/) -->

<svg
   width="273.93329mm"
   height="273.93329mm"
   viewBox="0 0 273.93329 273.93329"
   version="1.1"
   id="svg5"
   inkscape:version="1.1 (c4e8f9e, 2021-05-24)"
   sodipodi:docname="EmberIcon.svg"
   xmlns:inkscape="http://www.inkscape.org/namespaces/inkscape"
   xmlns:sodipodi="http://sodipodi.sourceforge.net/DTD/sodipodi-0.dtd"
   xmlns:xlink="http://www.w3.org/1999/xlink"
   xmlns="http://www.w3.org/2000/svg"
   xmlns:svg="http://www.w3.org/2000/svg">
  <sodipodi:namedview
     id="namedview7"
     pagecolor="#ffffff"
     bordercolor="#666666"
     borderopacity="1.0"
     inkscape:pageshadow="2"
     inkscape:pageopacity="0.0"
     inkscape:pagecheckerboard="0"
     inkscape:document-units="mm"
     showgrid="false"
     inkscape:zoom="0.31175827"
     inkscape:cx="-27.264714"
     inkscape:cy="864.4518"
     inkscape:window-width="1680"
     inkscape:window-height="1005"
     inkscape:window-x="0"
     inkscape:window-y="23"
     inkscape:window-maximized="0"
     inkscape:current-layer="layer1"
     fit-margin-top="0"
     fit-margin-left="0"
     fit-margin-right="0"
     fit-margin-bottom="0" />
  <defs
     id="defs2">
    <linearGradient
       inkscape:collect="always"
       id="linearGradient1706">
      <stop
         style="stop-color:#ef8d3b;stop-opacity:1"
         offset="0"
         id="stop1702" />
      <stop
         style="stop-color:#e23638;stop-opacity:1"
         offset="1"
         id="stop1704" />
    </linearGradient>
    <linearGradient
       inkscape:collect="always"
       xlink:href="#linearGradient1706"
       id="linearGradient1708"
       x1="101.63195"
       y1="4.7389364"
       x2="101.63195"
       y2="274.18079"
       gradientUnits="userSpaceOnUse"
       gradientTransform="translate(232.83342)" />
  </defs>
  <g
     inkscape:label="Layer 1"
     inkscape:groupmode="layer"
     id="layer1"
     transform="translate(-213.86966,-3.0113626)">
    <rect
       style="opacity:1;fill:url(#linearGradient1708);fill-opacity:1;stroke:#c54543;stroke-width:3;stroke-linecap:round;stroke-miterlimit:4;stroke-dasharray:none;stroke-opacity:1"
       id="rect1049"
       width="270.93329"
       height="270.93329"
       x="215.36966"
       y="4.5113626"
       ry="25.907869" />
    <path
       id="rect6575"
       style="opacity:1;fill:#ffffff;fill-opacity:1;stroke:none;stroke-width:3;stroke-linecap:round;stroke-miterlimit:4;stroke-dasharray:none;stroke-opacity:1"
       d="m 226.25087,26.908016 v 21.004821 c 1.00453,0.465196 2.97143,1.387496 3.91036,1.821595 46.18298,21.351793 90.26634,41.013237 112.31569,50.093581 4.94792,2.037647 9.21269,3.884307 9.47746,4.104147 0.26476,0.21996 -15.09797,7.97731 -34.13953,17.23874 -19.04157,9.26145 -34.82844,16.63182 -35.08212,16.37832 -0.25368,-0.25343 -0.57065,-8.0351 -0.70435,-17.29248 l -0.2434,-16.83153 9.79941,3.11764 c 10.78606,3.43187 13.16459,3.51758 15.93082,0.57309 l 1.5906,-1.69343 -5.4591,-2.50528 c -8.91564,-4.091377 -21.42557,-8.933913 -31.7557,-12.292788 -10.46929,-3.404119 -25.62947,-7.399033 -28.07892,-7.399033 -2.2695,0 -6.39521,1.36752 -8.17419,2.709397 -1.55527,1.173159 -1.46507,1.233603 8.3442,5.568651 5.45404,2.410338 12.11978,5.383846 14.81254,6.607866 l 4.89583,2.225707 -1.88516,12.37753 c -3.19964,21.00621 -5.46231,40.01194 -4.83743,40.6368 0.32669,0.32671 3.6623,0.4753 7.41247,0.33021 6.259,-0.24219 7.1028,-0.44499 10.27897,-2.47478 2.23118,-1.42588 7.02384,-3.21424 13.49427,-5.03535 5.51884,-1.55327 22.17879,-6.35893 37.02257,-10.67894 18.11044,-5.27076 28.69614,-8.00771 32.17893,-8.3199 10.32261,-0.92525 21.3683,-2.48909 34.83043,-4.932 l 13.72422,-2.4908 9.45834,2.20141 c 8.68592,2.02121 31.69469,7.62352 60.0537,14.59343 v -14.38569 c -22.31864,-6.7837 -38.50104,-11.7403 -38.66534,-11.89126 -0.28964,-0.26609 3.6029,-3.25883 8.65012,-6.65024 13.68863,-9.197843 22.17739,-18.335083 20.14606,-21.684983 -1.21084,-1.996832 -10.09211,-6.160982 -15.46728,-7.252272 -9.10648,-1.848844 -14.3355,-2.045332 -22.87664,-0.858861 -15.36209,2.133947 -36.31708,8.341556 -46.80334,13.864786 l -4.28449,2.25671 c -3.07435,4.419783 -144.71164,-60.848096 -149.87,-63.034814 z"
       sodipodi:nodetypes="cccscscccccccsscscccscsscccccccsssscscc" />
    <g
       aria-label="EMBER"
       transform="scale(0.72555735,1.3782508)"
       id="text1504"
       style="font-weight:bold;font-size:72.8325px;line-height:1.25;font-family:'Arial Hebrew Scholar';-inkscape-font-specification:'Arial Hebrew Scholar, Bold';fill:#ffffff;stroke-width:0.264584">
      <path
         d="m 384.32026,179.32953 h -38.30107 v -52.95292 h 38.30107 v 10.24207 h -24.7161 v 9.13962 h 22.93797 v 10.24207 h -22.93797 v 13.08709 h 24.7161 z"
         id="path1366" />
      <path
         d="M 451.32047,179.32953 H 437.7355 v -35.45606 l -9.81532,23.0091 h -9.42412 l -9.81532,-23.0091 v 35.45606 h -12.87371 v -52.95292 h 15.86098 l 11.91352,26.56536 11.87796,-26.56536 h 15.86098 z"
         id="path1368" />
      <path
         d="m 510.10568,163.11292 q 0,3.84077 -1.56476,6.86361 -1.5292,3.02283 -4.23197,5.01434 -3.12952,2.34715 -6.89917,3.3429 -3.73409,0.99576 -9.49525,0.99576 h -23.11578 v -52.95292 h 20.55526 q 6.40129,0 9.353,0.42675 2.98727,0.42675 5.90342,1.88482 3.02283,1.5292 4.4809,4.12528 1.49364,2.56052 1.49364,5.86785 0,3.84078 -2.02708,6.79249 -2.02707,2.91614 -5.7256,4.55203 v 0.2845 q 5.19216,1.03132 8.21499,4.26753 3.0584,3.23621 3.0584,8.53506 z m -17.49687,-21.7644 q 0,-1.31582 -0.67569,-2.63164 -0.64013,-1.31582 -2.31158,-1.95595 -1.49364,-0.56901 -3.73409,-0.60457 -2.20489,-0.0711 -6.22348,-0.0711 h -1.28026 v 11.20227 h 2.13377 q 3.23621,0 5.51222,-0.10669 2.27602,-0.10669 3.59184,-0.71126 1.84926,-0.81794 2.41827,-2.0982 0.569,-1.31582 0.569,-3.02283 z m 3.3429,21.55102 q 0,-2.52495 -0.99576,-3.87634 -0.96019,-1.38694 -3.30733,-2.06264 -1.60033,-0.46231 -4.40978,-0.49787 -2.80946,-0.0356 -5.86786,-0.0356 h -2.98727 v 13.19378 h 0.99576 q 5.76116,0 8.25056,-0.0356 2.48939,-0.0356 4.58759,-0.92463 2.13376,-0.88907 2.91614,-2.34714 0.81795,-1.49364 0.81795,-3.41403 z"
         id="path1370" />
      <path
         d="m 558.57771,179.32953 h -38.30107 v -52.95292 h 38.30107 v 10.24207 H 533.8616 v 9.13962 h 22.93797 v 10.24207 H 533.8616 v 13.08709 h 24.71611 z"
         id="path1372" />
      <path
         d="m 599.75935,142.59322 q 0,-1.99152 -0.81794,-3.41403 -0.81794,-1.42251 -2.80946,-2.24045 -1.38694,-0.569 -3.23621,-0.67569 -1.84926,-0.14225 -4.30309,-0.14225 h -4.94322 v 14.26066 h 4.1964 q 3.27178,0 5.47667,-0.32007 2.20489,-0.32006 3.69852,-1.45807 1.42251,-1.10245 2.06264,-2.41827 0.67569,-1.35138 0.67569,-3.59183 z m 21.30208,36.73631 h -16.67892 l -14.43847,-19.41726 h -6.29461 v 19.41726 h -13.58497 v -52.95292 h 22.90241 q 4.69428,0 8.07274,0.53344 3.37846,0.53344 6.33017,2.31157 2.98727,1.77814 4.72984,4.62316 1.77814,2.80946 1.77814,7.07699 0,5.86785 -2.73833,9.56637 -2.70277,3.69853 -7.75268,6.15236 z"
         id="path1374" />
    </g>
  </g>
</svg>
